<svg xmlns="http://www.w3.org/2000/svg" xmlns:xlink="http://www.w3.org/1999/xlink"><symbol id="burger" viewBox="0 0 25 16">
  <path id="&#x411;&#x443;&#x440;&#x433;&#x435;&#x440;" class="cls-1" d="M1,0H24a1,1,0,0,1,0,2H1A1,1,0,0,1,1,0ZM1,7H24a1,1,0,0,1,0,2H1A1,1,0,0,1,1,7Zm0,7H24a1,1,0,0,1,0,2H1A1,1,0,0,1,1,14Z"/>
</symbol><symbol id="marker">
  <path d="M5.500,16.999 C5.068,16.999 -0.000,8.644 -0.000,5.568 C-0.000,2.493 2.462,-0.001 5.500,-0.001 C8.537,-0.001 11.000,2.493 11.000,5.568 C11.000,8.644 5.643,16.999 5.500,16.999 ZM5.500,2.906 C4.068,2.906 2.906,4.088 2.906,5.547 C2.906,7.005 4.068,8.187 5.500,8.187 C6.932,8.187 8.094,7.005 8.094,5.547 C8.094,4.088 6.932,2.906 5.500,2.906 Z"/>
</symbol></svg>